<svg xmlns="http://www.w3.org/2000/svg" xmlns:xlink="http://www.w3.org/1999/xlink" version="1.1" x="0px" y="0px"
     viewBox="25 20 50 60" enable-background="new 0 0 100 100" xml:space="preserve"><path fill="#000000" d="M37.297,63.283c0.214,0.214,0.56,0.214,0.773,0l0.58-0.58c0.213-0.213,0.213-0.561,0-0.773l-0.58-0.58  c-0.214-0.214-0.56-0.214-0.773,0l-0.58,0.58c-0.213,0.213-0.214,0.56,0,0.773L37.297,63.283z"/>
    <path fill="#000000"
          d="M41.156,49.568h0.82c0.303,0,0.548-0.244,0.548-0.547v-0.819c0-0.303-0.245-0.548-0.548-0.548h-0.82  c-0.302,0-0.547,0.245-0.547,0.548v0.819C40.609,49.324,40.854,49.568,41.156,49.568z"/>
    <path fill="#000000"
          d="M26.469,74.111c0.213,0.214,0.56,0.214,0.773,0l0.58-0.581c0.214-0.213,0.214-0.56,0-0.772l-0.58-0.58  c-0.214-0.214-0.561-0.214-0.773,0l-0.58,0.58c-0.215,0.213-0.215,0.56,0,0.772L26.469,74.111z"/>
    <path fill="#000000"
          d="M41.156,57.225h0.82c0.303,0,0.548-0.244,0.548-0.547v-0.819c0-0.303-0.245-0.547-0.548-0.547h-0.82  c-0.302,0-0.547,0.244-0.547,0.547v0.819C40.609,56.98,40.854,57.225,41.156,57.225z"/>
    <path fill="#000000"
          d="M23.762,76.817c0.213,0.215,0.56,0.215,0.773,0l0.58-0.58c0.213-0.213,0.214-0.56,0-0.772l-0.58-0.58  c-0.214-0.214-0.561-0.214-0.773,0l-0.58,0.58c-0.213,0.213-0.213,0.56,0,0.772L23.762,76.817z"/>
    <path fill="#000000"
          d="M34.59,65.99c0.214,0.214,0.56,0.214,0.773,0l0.58-0.58c0.214-0.214,0.214-0.561,0-0.773l-0.58-0.58  c-0.214-0.214-0.56-0.214-0.774,0l-0.58,0.58c-0.213,0.213-0.213,0.56,0,0.772L34.59,65.99z"/>
    <path fill="#000000"
          d="M40.003,60.576c0.215,0.214,0.562,0.214,0.774,0l0.58-0.58c0.213-0.213,0.213-0.56,0-0.772l-0.58-0.581  c-0.213-0.214-0.561-0.214-0.774,0l-0.58,0.579c-0.213,0.214-0.213,0.562,0,0.774L40.003,60.576z"/>
    <path fill="#000000"
          d="M31.883,68.697c0.213,0.214,0.56,0.214,0.773,0l0.58-0.581c0.214-0.213,0.214-0.56,0-0.772l-0.58-0.58  c-0.214-0.214-0.561-0.214-0.773,0l-0.58,0.58c-0.213,0.213-0.214,0.56,0,0.772L31.883,68.697z"/>
    <path fill="#000000"
          d="M29.176,71.403c0.213,0.215,0.56,0.215,0.773,0l0.58-0.58c0.214-0.213,0.214-0.56,0-0.772l-0.58-0.58  c-0.214-0.214-0.561-0.214-0.773,0l-0.58,0.58c-0.215,0.213-0.215,0.56,0,0.772L29.176,71.403z"/>
    <path fill="#000000"
          d="M41.156,53.396h0.82c0.303,0,0.548-0.244,0.548-0.547V52.03c0-0.303-0.245-0.547-0.548-0.547h-0.82  c-0.302,0-0.547,0.244-0.547,0.547v0.819C40.609,53.152,40.854,53.396,41.156,53.396z"/>
    <path fill="#000000"
          d="M41.156,45.74h0.82c0.303,0,0.548-0.245,0.548-0.547v-0.82c0-0.303-0.245-0.547-0.548-0.547h-0.82  c-0.302,0-0.547,0.244-0.547,0.547v0.82C40.609,45.495,40.854,45.74,41.156,45.74z"/>
    <path fill="#000000"
          d="M41.156,38.083h0.82c0.303,0,0.548-0.244,0.548-0.546v-0.82c0-0.303-0.245-0.547-0.548-0.547h-0.82  c-0.302,0-0.547,0.244-0.547,0.547v0.82C40.609,37.839,40.854,38.083,41.156,38.083z"/>
    <path fill="#000000"
          d="M41.156,34.255h0.82c0.303,0,0.548-0.244,0.548-0.547v-0.819c0-0.303-0.245-0.548-0.548-0.548h-0.82  c-0.302,0-0.547,0.245-0.547,0.548v0.819C40.609,34.011,40.854,34.255,41.156,34.255z"/>
    <path fill="#000000"
          d="M41.156,30.427h0.82c0.303,0,0.548-0.244,0.548-0.546V29.06c0-0.302-0.245-0.547-0.548-0.547h-0.82  c-0.302,0-0.547,0.245-0.547,0.547v0.821C40.609,30.183,40.854,30.427,41.156,30.427z"/>
    <path fill="#000000"
          d="M41.156,26.599h0.82c0.303,0,0.548-0.245,0.548-0.547v-0.82c0-0.303-0.245-0.547-0.548-0.547h-0.82  c-0.302,0-0.547,0.244-0.547,0.547v0.82C40.609,26.354,40.854,26.599,41.156,26.599z"/>
    <path fill="#000000"
          d="M70.911,58.022c0-0.302-0.245-0.547-0.547-0.547h-0.82c-0.302,0-0.548,0.245-0.548,0.547v0.82  c0,0.302,0.246,0.547,0.548,0.547h0.82c0.302,0,0.547-0.245,0.547-0.547V58.022z"/>
    <path fill="#000000"
          d="M63.255,58.022c0-0.302-0.245-0.547-0.548-0.547h-0.82c-0.301,0-0.547,0.245-0.547,0.547v0.82  c0,0.302,0.246,0.547,0.547,0.547h0.82c0.303,0,0.548-0.245,0.548-0.547V58.022z"/>
    <path fill="#000000"
          d="M67.083,58.022c0-0.302-0.245-0.547-0.547-0.547h-0.821c-0.301,0-0.547,0.245-0.547,0.547v0.82  c0,0.302,0.246,0.547,0.547,0.547h0.821c0.302,0,0.547-0.245,0.547-0.547V58.022z"/>
    <path fill="#000000"
          d="M42.199,58.022v0.82c0,0.302,0.244,0.547,0.546,0.547h0.821c0.301,0,0.547-0.245,0.547-0.547v-0.82  c0-0.302-0.246-0.547-0.547-0.547h-0.821C42.443,57.476,42.199,57.721,42.199,58.022z"/>
    <path fill="#000000"
          d="M53.684,58.843c0,0.302,0.245,0.547,0.547,0.547h0.82c0.302,0,0.547-0.245,0.547-0.547v-0.82  c0-0.302-0.245-0.547-0.547-0.547h-0.82c-0.302,0-0.547,0.245-0.547,0.547V58.843z"/>
    <path fill="#000000"
          d="M46.026,58.843c0,0.302,0.245,0.547,0.547,0.547h0.821c0.303,0,0.547-0.245,0.547-0.547v-0.82  c0-0.302-0.244-0.547-0.547-0.547h-0.821c-0.302,0-0.547,0.245-0.547,0.547V58.843z"/>
    <path fill="#000000"
          d="M49.855,58.843c0,0.302,0.245,0.547,0.547,0.547h0.82c0.302,0,0.547-0.245,0.547-0.547v-0.82  c0-0.302-0.245-0.547-0.547-0.547h-0.82c-0.302,0-0.547,0.245-0.547,0.547V58.843z"/>
    <path fill="#000000"
          d="M74.74,58.022c0-0.302-0.246-0.547-0.548-0.547h-0.82c-0.302,0-0.547,0.245-0.547,0.547v0.82  c0,0.302,0.245,0.547,0.547,0.547h0.82c0.302,0,0.548-0.245,0.548-0.547V58.022z"/>
    <path fill="#000000"
          d="M20.446,80.101h37.837c0.301,0,0.719-0.173,0.933-0.388l20.497-20.497c0.215-0.214,0.388-0.632,0.388-0.934  V20.446c0-0.302-0.245-0.547-0.547-0.547H41.717c-0.301,0-0.72,0.173-0.933,0.387L20.286,40.783  c-0.213,0.214-0.387,0.632-0.387,0.934v37.836C19.899,79.855,20.145,80.101,20.446,80.101z M59.391,76.285V59.033  c0.021-0.061,0.035-0.123,0.035-0.19v-0.82c0-0.067-0.014-0.13-0.035-0.19v-2.297h16.368c0.269,0,0.487-0.218,0.487-0.486V25.106  l1.554-1.553c0.214-0.214,0.386-0.142,0.386,0.16v33.775l-0.001,0.014c-0.051-0.016-0.106-0.027-0.163-0.027H77.2  c-0.303,0-0.547,0.245-0.547,0.547v0.82c0,0.197,0.104,0.369,0.262,0.465L59.776,76.445C59.563,76.659,59.391,76.587,59.391,76.285z   M23.554,40.223l17.47-17.47c0.044,0.01,0.088,0.018,0.133,0.018h0.82c0.303,0,0.548-0.245,0.548-0.547v-0.41h33.761  c0.303,0,0.374,0.173,0.16,0.386l-1.586,1.586l-30.396-0.032v16.856h-1.939v-0.064c0-0.303-0.245-0.547-0.548-0.547h-0.82  c-0.302,0-0.547,0.244-0.547,0.547v0.064H23.714C23.412,40.609,23.341,40.437,23.554,40.223z M22.36,42.523h22.104v12.525  c0,0.269,0.218,0.486,0.488,0.486h12.523V77.64c0,0.302-0.244,0.546-0.547,0.546H22.42l-0.012-0.014l-0.58-0.58l-0.014-0.012V43.07  C21.814,42.77,22.059,42.523,22.36,42.523z"/>
</svg>