<svg xmlns="http://www.w3.org/2000/svg" xmlns:xlink="http://www.w3.org/1999/xlink" version="1.1" x="0px" y="0px"
     viewBox="25 20 50 60" enable-background="new 0 0 100 100" xml:space="preserve"><path fill="#000000" d="M41.157,26.599h0.82c0.302,0,0.547-0.245,0.547-0.547v-0.82c0-0.303-0.245-0.547-0.547-0.547h-0.82  c-0.302,0-0.547,0.244-0.547,0.547v0.82C40.61,26.354,40.855,26.599,41.157,26.599z"/>
    <path fill="#000000"
          d="M41.157,34.255h0.82c0.302,0,0.547-0.244,0.547-0.547v-0.819c0-0.303-0.245-0.548-0.547-0.548h-0.82  c-0.302,0-0.547,0.245-0.547,0.548v0.819C40.61,34.011,40.855,34.255,41.157,34.255z"/>
    <path fill="#000000"
          d="M41.157,38.083h0.82c0.302,0,0.547-0.244,0.547-0.546v-0.82c0-0.303-0.245-0.547-0.547-0.547h-0.82  c-0.302,0-0.547,0.244-0.547,0.547v0.82C40.61,37.839,40.855,38.083,41.157,38.083z"/>
    <path fill="#000000"
          d="M41.157,30.427h0.82c0.302,0,0.547-0.244,0.547-0.546V29.06c0-0.302-0.245-0.547-0.547-0.547h-0.82  c-0.302,0-0.547,0.245-0.547,0.547v0.821C40.61,30.183,40.855,30.427,41.157,30.427z"/>
    <path fill="#000000"
          d="M67.083,58.022c0-0.302-0.244-0.547-0.547-0.547h-0.82c-0.302,0-0.546,0.245-0.546,0.547v0.82  c0,0.302,0.244,0.547,0.546,0.547h0.82c0.303,0,0.547-0.245,0.547-0.547V58.022z"/>
    <path fill="#000000"
          d="M63.254,58.022c0-0.302-0.245-0.547-0.547-0.547h-0.82c-0.302,0-0.547,0.245-0.547,0.547v0.82  c0,0.302,0.245,0.547,0.547,0.547h0.82c0.302,0,0.547-0.245,0.547-0.547V58.022z"/>
    <path fill="#000000"
          d="M70.911,58.022c0-0.302-0.245-0.547-0.547-0.547h-0.819c-0.303,0-0.547,0.245-0.547,0.547v0.82  c0,0.302,0.244,0.547,0.547,0.547h0.819c0.302,0,0.547-0.245,0.547-0.547V58.022z"/>
    <path fill="#000000"
          d="M74.74,58.022c0-0.302-0.246-0.547-0.548-0.547h-0.82c-0.302,0-0.546,0.245-0.546,0.547v0.82  c0,0.302,0.244,0.547,0.546,0.547h0.82c0.302,0,0.548-0.245,0.548-0.547V58.022z"/>
    <path fill="#000000"
          d="M56.11,44.369c0-0.265-0.215-0.479-0.479-0.479H42.229c-0.076-0.04-0.161-0.064-0.252-0.064h-0.82  c-0.091,0-0.175,0.024-0.252,0.064H23.66c-0.265,0-0.479,0.214-0.479,0.479v31.097c-0.211,0.213-0.211,0.558,0,0.771v0.103  c0,0.266,0.215,0.479,0.479,0.479h0.104c0.213,0.212,0.558,0.212,0.771,0H55.63c0.265,0,0.479-0.214,0.479-0.479V44.369z"/>
    <path fill="#000000"
          d="M20.447,80.101h37.836c0.303,0,0.721-0.173,0.934-0.388l20.498-20.497c0.213-0.214,0.386-0.632,0.386-0.934  V20.446c0-0.302-0.244-0.547-0.546-0.547H41.718c-0.303,0-0.723,0.17-0.939,0.381L20.292,40.228  c-0.216,0.211-0.392,0.627-0.392,0.929v38.396C19.9,79.855,20.144,80.101,20.447,80.101z M56.929,78.186h-34.51l-0.012-0.014  l-0.579-0.58l-0.015-0.012V43.07c0-0.301,0.245-0.547,0.547-0.547h34.568c0.302,0,0.547,0.246,0.547,0.547V77.64  C57.476,77.941,57.231,78.186,56.929,78.186z M59.39,76.285V59.033c0.022-0.061,0.036-0.123,0.036-0.19v-0.82  c0-0.067-0.014-0.13-0.036-0.19V42.51c0-0.302,0.174-0.721,0.387-0.934l18.022-18.022c0.215-0.214,0.388-0.142,0.388,0.16v33.775  l-0.002,0.014c-0.052-0.016-0.106-0.027-0.164-0.027h-0.82c-0.303,0-0.547,0.245-0.547,0.547v0.82c0,0.197,0.104,0.369,0.261,0.465  L59.777,76.445C59.564,76.659,59.39,76.587,59.39,76.285z M23.126,40.227l17.881-17.479c0.048,0.013,0.098,0.022,0.149,0.022h0.82  c0.302,0,0.547-0.245,0.547-0.547v-0.41h33.762c0.303,0,0.374,0.173,0.161,0.386L58.423,40.223  c-0.214,0.214-0.632,0.387-0.934,0.387H42.524v-0.064c0-0.303-0.245-0.547-0.547-0.547h-0.82c-0.302,0-0.547,0.244-0.547,0.547  v0.064H23.283C22.982,40.609,22.912,40.438,23.126,40.227z"/>
</svg>