<svg xmlns="http://www.w3.org/2000/svg" xmlns:xlink="http://www.w3.org/1999/xlink" version="1.1" x="0px" y="0px"
     viewBox="25 20 50 60" enable-background="new 0 0 100 100" xml:space="preserve"><path fill="#000000" d="M31.884,68.697c0.213,0.214,0.56,0.214,0.772,0l0.58-0.581c0.214-0.213,0.214-0.56,0-0.772l-0.58-0.58  c-0.213-0.214-0.56-0.214-0.772,0l-0.581,0.58c-0.214,0.213-0.214,0.56,0,0.772L31.884,68.697z"/>
    <path fill="#000000"
          d="M34.591,65.99c0.213,0.214,0.56,0.214,0.772,0l0.58-0.58c0.214-0.214,0.214-0.561,0-0.773l-0.58-0.58  c-0.213-0.214-0.56-0.214-0.773,0l-0.58,0.58c-0.214,0.213-0.214,0.56,0,0.772L34.591,65.99z"/>
    <path fill="#000000"
          d="M41.157,38.083h0.82c0.303,0,0.547-0.244,0.547-0.546v-0.82c0-0.303-0.244-0.547-0.547-0.547h-0.82  c-0.302,0-0.548,0.244-0.548,0.547v0.82C40.609,37.839,40.855,38.083,41.157,38.083z"/>
    <path fill="#000000"
          d="M37.298,63.283c0.213,0.214,0.56,0.214,0.772,0l0.58-0.58c0.214-0.213,0.214-0.561,0-0.773l-0.58-0.58  c-0.213-0.214-0.561-0.214-0.772,0l-0.581,0.58c-0.214,0.213-0.214,0.56,0,0.773L37.298,63.283z"/>
    <path fill="#000000"
          d="M41.157,26.599h0.82c0.303,0,0.547-0.245,0.547-0.547v-0.82c0-0.303-0.244-0.547-0.547-0.547h-0.82  c-0.302,0-0.548,0.244-0.548,0.547v0.82C40.609,26.354,40.855,26.599,41.157,26.599z"/>
    <path fill="#000000"
          d="M41.157,34.255h0.82c0.303,0,0.547-0.244,0.547-0.547v-0.819c0-0.303-0.244-0.548-0.547-0.548h-0.82  c-0.302,0-0.548,0.245-0.548,0.548v0.819C40.609,34.011,40.855,34.255,41.157,34.255z"/>
    <path fill="#000000"
          d="M41.157,30.427h0.82c0.303,0,0.547-0.244,0.547-0.546V29.06c0-0.302-0.244-0.547-0.547-0.547h-0.82  c-0.302,0-0.548,0.245-0.548,0.547v0.821C40.609,30.183,40.855,30.427,41.157,30.427z"/>
    <path fill="#000000"
          d="M29.176,71.403c0.214,0.215,0.561,0.215,0.773,0l0.581-0.58c0.213-0.213,0.213-0.56,0-0.772l-0.581-0.58  c-0.213-0.214-0.56-0.214-0.773,0l-0.579,0.58c-0.215,0.213-0.215,0.56,0,0.772L29.176,71.403z"/>
    <path fill="#000000"
          d="M41.157,53.396h0.82c0.303,0,0.547-0.244,0.547-0.547V52.03c0-0.303-0.244-0.547-0.547-0.547h-0.82  c-0.302,0-0.548,0.244-0.548,0.547v0.819C40.609,53.152,40.855,53.396,41.157,53.396z"/>
    <path fill="#000000"
          d="M41.157,57.225h0.82c0.303,0,0.547-0.244,0.547-0.547v-0.819c0-0.303-0.244-0.547-0.547-0.547h-0.82  c-0.302,0-0.548,0.244-0.548,0.547v0.819C40.609,56.98,40.855,57.225,41.157,57.225z"/>
    <path fill="#000000"
          d="M41.157,49.568h0.82c0.303,0,0.547-0.244,0.547-0.547v-0.819c0-0.303-0.244-0.548-0.547-0.548h-0.82  c-0.302,0-0.548,0.245-0.548,0.548v0.819C40.609,49.324,40.855,49.568,41.157,49.568z"/>
    <path fill="#000000"
          d="M23.762,76.817c0.214,0.215,0.561,0.215,0.773,0l0.58-0.58c0.213-0.213,0.213-0.56,0-0.772l-0.58-0.58  c-0.213-0.214-0.56-0.214-0.773,0l-0.58,0.58c-0.213,0.213-0.213,0.56,0,0.772L23.762,76.817z"/>
    <path fill="#000000"
          d="M40.005,60.576c0.213,0.214,0.56,0.214,0.772,0l0.58-0.58c0.214-0.213,0.214-0.56,0-0.772l-0.581-0.581  c-0.213-0.214-0.559-0.214-0.772,0l-0.58,0.579c-0.214,0.214-0.214,0.562,0,0.774L40.005,60.576z"/>
    <path fill="#000000"
          d="M41.157,45.74h0.82c0.303,0,0.547-0.245,0.547-0.547v-0.82c0-0.303-0.244-0.547-0.547-0.547h-0.82  c-0.302,0-0.548,0.244-0.548,0.547v0.82C40.609,45.495,40.855,45.74,41.157,45.74z"/>
    <path fill="#000000"
          d="M26.469,74.111c0.214,0.214,0.561,0.214,0.773,0l0.58-0.581c0.213-0.213,0.213-0.56,0-0.772l-0.58-0.58  c-0.213-0.214-0.56-0.214-0.773,0l-0.58,0.58c-0.214,0.213-0.214,0.56,0,0.772L26.469,74.111z"/>
    <path fill="#000000"
          d="M46.848,58.843c0,0.302,0.244,0.547,0.547,0.547h0.82c0.302,0,0.547-0.245,0.547-0.547v-0.82  c0-0.302-0.245-0.547-0.547-0.547h-0.82c-0.303,0-0.547,0.245-0.547,0.547V58.843z"/>
    <path fill="#000000"
          d="M43.566,59.39h0.82c0.302,0,0.547-0.245,0.547-0.547v-0.82c0-0.302-0.245-0.547-0.547-0.547h-0.82  c-0.303,0-0.547,0.245-0.547,0.547v0.82C43.02,59.145,43.264,59.39,43.566,59.39z"/>
    <path fill="#000000"
          d="M50.676,58.843c0,0.302,0.244,0.547,0.547,0.547h0.821c0.302,0,0.547-0.245,0.547-0.547v-0.82  c0-0.302-0.245-0.547-0.547-0.547h-0.821c-0.303,0-0.547,0.245-0.547,0.547V58.843z"/>
    <path fill="#000000"
          d="M67.903,58.022c0-0.302-0.245-0.547-0.546-0.547h-0.821c-0.303,0-0.547,0.245-0.547,0.547v0.82  c0,0.302,0.244,0.547,0.547,0.547h0.821c0.301,0,0.546-0.245,0.546-0.547V58.022z"/>
    <path fill="#000000"
          d="M71.731,58.022c0-0.302-0.244-0.547-0.547-0.547h-0.819c-0.303,0-0.548,0.245-0.548,0.547v0.82  c0,0.302,0.245,0.547,0.548,0.547h0.819c0.303,0,0.547-0.245,0.547-0.547V58.022z"/>
    <path fill="#000000"
          d="M64.074,58.022c0-0.302-0.244-0.547-0.547-0.547h-0.819c-0.303,0-0.547,0.245-0.547,0.547v0.82  c0,0.302,0.244,0.547,0.547,0.547h0.819c0.303,0,0.547-0.245,0.547-0.547V58.022z"/>
    <path fill="#000000"
          d="M75.56,58.022c0-0.302-0.245-0.547-0.546-0.547h-0.82c-0.303,0-0.547,0.245-0.547,0.547v0.82  c0,0.302,0.244,0.547,0.547,0.547h0.82c0.301,0,0.546-0.245,0.546-0.547V58.022z"/>
    <path fill="#000000"
          d="M54.504,58.843c0,0.302,0.245,0.547,0.548,0.547h0.82c0.302,0,0.546-0.245,0.546-0.547v-0.82  c0-0.302-0.244-0.547-0.546-0.547h-0.82c-0.303,0-0.548,0.245-0.548,0.547V58.843z"/>
    <path fill="#000000"
          d="M20.447,80.101h37.836c0.302,0,0.72-0.173,0.934-0.388l20.497-20.497c0.214-0.214,0.387-0.632,0.387-0.934  V20.446c0-0.302-0.245-0.547-0.547-0.547H41.718c-0.302,0-0.72,0.173-0.934,0.387L20.287,40.783  c-0.215,0.214-0.388,0.632-0.388,0.934v37.836C19.899,79.855,20.146,80.101,20.447,80.101z M59.391,76.285V59.39h0.31  c0.302,0,0.547-0.245,0.547-0.547v-0.82c0-0.302-0.245-0.547-0.547-0.547h-0.31V42.51c0-0.302,0.173-0.721,0.387-0.934  l18.023-18.022c0.213-0.214,0.386-0.142,0.386,0.16v33.775c0,0.303-0.173,0.721-0.386,0.934L59.777,76.445  C59.563,76.659,59.391,76.587,59.391,76.285z M23.555,40.223l17.471-17.47c0.042,0.01,0.086,0.018,0.132,0.018h0.82  c0.303,0,0.547-0.245,0.547-0.547v-0.41h33.762c0.302,0,0.374,0.173,0.16,0.386L58.424,40.223c-0.213,0.214-0.632,0.387-0.934,0.387  H42.524v-0.064c0-0.303-0.244-0.547-0.547-0.547h-0.82c-0.302,0-0.548,0.244-0.548,0.547v0.064h-1.824V28.732  c0-0.245-0.141-0.303-0.313-0.13L26.465,40.609h-2.75C23.413,40.609,23.341,40.437,23.555,40.223z M21.814,43.07  c0-0.301,0.244-0.547,0.547-0.547h2.19l-0.661,0.661c-0.173,0.173-0.313,0.511-0.313,0.755v27.328c0,0.245,0.142,0.304,0.316,0.133  l14.574-14.269c0.175-0.171,0.316-0.507,0.316-0.752V42.523H56.93c0.301,0,0.547,0.246,0.547,0.547V77.64  c0,0.302-0.246,0.546-0.547,0.546H22.361c-0.303,0-0.547-0.244-0.547-0.546V43.07z"/>
</svg>