<svg xmlns="http://www.w3.org/2000/svg" xmlns:xlink="http://www.w3.org/1999/xlink" version="1.1" x="0px" y="0px"
     viewBox="25 20 50 60" enable-background="new 0 0 100 100" xml:space="preserve"><path fill="#000000" d="M20.446,80.101h37.837c0.302,0,0.72-0.173,0.934-0.388l20.497-20.497c0.214-0.214,0.387-0.632,0.387-0.934  V20.446c0-0.302-0.244-0.547-0.547-0.547H41.718c-0.302,0-0.72,0.173-0.934,0.387L20.287,40.783  c-0.214,0.214-0.388,0.632-0.388,0.934v37.836C19.899,79.855,20.145,80.101,20.446,80.101z M78.188,57.489  c0,0.303-0.174,0.721-0.388,0.934L59.777,76.445c-0.213,0.214-0.387,0.142-0.387-0.16V59.033c0.022-0.061,0.036-0.123,0.036-0.19  v-0.82c0-0.067-0.014-0.13-0.036-0.19V42.51c0-0.302,0.174-0.721,0.387-0.934L77.8,23.554c0.214-0.214,0.388-0.142,0.388,0.16  V57.489z M23.555,40.223l18.022-18.023c0.213-0.213,0.631-0.386,0.934-0.386h33.775c0.303,0,0.373,0.173,0.16,0.386L58.424,40.223  c-0.214,0.214-0.632,0.387-0.935,0.387H42.524v-0.064c0-0.303-0.244-0.547-0.547-0.547h-0.82c-0.302,0-0.548,0.244-0.548,0.547  v0.064H23.715C23.413,40.609,23.341,40.437,23.555,40.223z M21.814,43.07c0-0.301,0.244-0.547,0.547-0.547H56.93  c0.302,0,0.547,0.246,0.547,0.547V77.64c0,0.302-0.245,0.546-0.547,0.546H22.361c-0.303,0-0.547-0.244-0.547-0.546V43.07z"/>
    <path fill="#000000"
          d="M26.469,74.111c0.214,0.214,0.56,0.214,0.774,0l0.58-0.581c0.213-0.213,0.213-0.56,0-0.772l-0.581-0.58  c-0.214-0.214-0.56-0.214-0.773,0l-0.58,0.58c-0.213,0.213-0.213,0.56,0,0.772L26.469,74.111z"/>
    <path fill="#000000"
          d="M23.762,76.817c0.214,0.215,0.56,0.215,0.773,0l0.581-0.58c0.213-0.213,0.213-0.56,0-0.772l-0.581-0.58  c-0.214-0.214-0.56-0.214-0.773,0l-0.58,0.58c-0.213,0.213-0.213,0.56,0,0.772L23.762,76.817z"/>
    <path fill="#000000"
          d="M41.157,34.255h0.82c0.303,0,0.547-0.244,0.547-0.547v-0.819c0-0.303-0.244-0.548-0.547-0.548h-0.82  c-0.302,0-0.548,0.245-0.548,0.548v0.819C40.609,34.011,40.855,34.255,41.157,34.255z"/>
    <path fill="#000000"
          d="M41.157,45.74h0.82c0.303,0,0.547-0.245,0.547-0.547v-0.82c0-0.303-0.244-0.547-0.547-0.547h-0.82  c-0.302,0-0.548,0.244-0.548,0.547v0.82C40.609,45.495,40.855,45.74,41.157,45.74z"/>
    <path fill="#000000"
          d="M29.176,71.403c0.214,0.215,0.561,0.215,0.774,0l0.58-0.58c0.213-0.213,0.213-0.56,0-0.772l-0.581-0.58  c-0.213-0.214-0.56-0.214-0.773,0l-0.58,0.58c-0.213,0.213-0.213,0.56,0,0.772L29.176,71.403z"/>
    <path fill="#000000"
          d="M41.157,30.427h0.82c0.303,0,0.547-0.244,0.547-0.546V29.06c0-0.302-0.244-0.547-0.547-0.547h-0.82  c-0.302,0-0.548,0.245-0.548,0.547v0.821C40.609,30.183,40.855,30.427,41.157,30.427z"/>
    <path fill="#000000"
          d="M41.157,49.568h0.82c0.303,0,0.547-0.244,0.547-0.547v-0.819c0-0.303-0.244-0.548-0.547-0.548h-0.82  c-0.302,0-0.548,0.245-0.548,0.548v0.819C40.609,49.324,40.855,49.568,41.157,49.568z"/>
    <path fill="#000000"
          d="M41.157,26.599h0.82c0.303,0,0.547-0.245,0.547-0.547v-0.82c0-0.303-0.244-0.547-0.547-0.547h-0.82  c-0.302,0-0.548,0.244-0.548,0.547v0.82C40.609,26.354,40.855,26.599,41.157,26.599z"/>
    <path fill="#000000"
          d="M41.157,38.083h0.82c0.303,0,0.547-0.244,0.547-0.546v-0.82c0-0.303-0.244-0.547-0.547-0.547h-0.82  c-0.302,0-0.548,0.244-0.548,0.547v0.82C40.609,37.839,40.855,38.083,41.157,38.083z"/>
    <path fill="#000000"
          d="M34.59,65.99c0.214,0.214,0.561,0.214,0.773,0l0.581-0.58c0.214-0.214,0.214-0.561,0-0.773l-0.581-0.58  c-0.213-0.214-0.56-0.214-0.773,0l-0.58,0.58c-0.213,0.213-0.213,0.56,0,0.772L34.59,65.99z"/>
    <path fill="#000000"
          d="M31.883,68.697c0.214,0.214,0.561,0.214,0.773,0l0.58-0.581c0.215-0.213,0.215-0.56,0-0.772l-0.58-0.58  c-0.213-0.214-0.56-0.214-0.773,0l-0.58,0.58c-0.213,0.213-0.213,0.56,0,0.772L31.883,68.697z"/>
    <path fill="#000000"
          d="M37.297,63.283c0.214,0.214,0.561,0.214,0.773,0l0.58-0.58c0.214-0.213,0.214-0.561,0-0.773l-0.58-0.58  c-0.213-0.214-0.56-0.214-0.773,0l-0.579,0.58c-0.214,0.213-0.214,0.56,0,0.773L37.297,63.283z"/>
    <path fill="#000000"
          d="M41.157,57.225h0.82c0.303,0,0.547-0.244,0.547-0.547v-0.819c0-0.303-0.244-0.547-0.547-0.547h-0.82  c-0.302,0-0.548,0.244-0.548,0.547v0.819C40.609,56.98,40.855,57.225,41.157,57.225z"/>
    <path fill="#000000"
          d="M41.157,53.396h0.82c0.303,0,0.547-0.244,0.547-0.547V52.03c0-0.303-0.244-0.547-0.547-0.547h-0.82  c-0.302,0-0.548,0.244-0.548,0.547v0.819C40.609,53.152,40.855,53.396,41.157,53.396z"/>
    <path fill="#000000"
          d="M40.005,60.576c0.213,0.214,0.56,0.214,0.772,0l0.58-0.58c0.214-0.213,0.214-0.56,0-0.772l-0.58-0.581  c-0.213-0.214-0.56-0.214-0.772,0l-0.58,0.579c-0.215,0.214-0.215,0.562,0,0.774L40.005,60.576z"/>
    <path fill="#000000"
          d="M50.402,59.39h0.82c0.302,0,0.547-0.245,0.547-0.547v-0.82c0-0.302-0.245-0.547-0.547-0.547h-0.82  c-0.302,0-0.547,0.245-0.547,0.547v0.82C49.855,59.145,50.101,59.39,50.402,59.39z"/>
    <path fill="#000000"
          d="M46.574,59.39h0.82c0.302,0,0.547-0.245,0.547-0.547v-0.82c0-0.302-0.245-0.547-0.547-0.547h-0.82  c-0.302,0-0.547,0.245-0.547,0.547v0.82C46.027,59.145,46.272,59.39,46.574,59.39z"/>
    <path fill="#000000"
          d="M42.199,58.022v0.82c0,0.302,0.245,0.547,0.547,0.547h0.82c0.302,0,0.547-0.245,0.547-0.547v-0.82  c0-0.302-0.245-0.547-0.547-0.547h-0.82C42.444,57.476,42.199,57.721,42.199,58.022z"/>
    <path fill="#000000"
          d="M54.23,59.39h0.82c0.302,0,0.548-0.245,0.548-0.547v-0.82c0-0.302-0.246-0.547-0.548-0.547h-0.82  c-0.302,0-0.546,0.245-0.546,0.547v0.82C53.685,59.145,53.929,59.39,54.23,59.39z"/>
    <path fill="#000000"
          d="M76.54,27.251L61.037,42.755c-0.184,0.183-0.332,0.543-0.332,0.803V72.61c0,0.26,0.15,0.324,0.336,0.142  l15.495-15.169c0.187-0.183,0.337-0.54,0.337-0.799V27.389C76.873,27.13,76.724,27.067,76.54,27.251z"/>
</svg>