<svg xmlns="http://www.w3.org/2000/svg" xmlns:xlink="http://www.w3.org/1999/xlink" version="1.1" x="0px" y="0px"
     viewBox="25 20 50 60" enable-background="new 0 0 100 100" xml:space="preserve"><path fill="#000000" d="M20.447,80.101h37.835c0.303,0,0.721-0.173,0.935-0.388l20.497-20.497c0.214-0.214,0.387-0.632,0.387-0.934  V20.446c0-0.302-0.245-0.547-0.547-0.547H41.717c-0.303,0-0.72,0.173-0.935,0.387L20.286,40.783  c-0.214,0.214-0.386,0.632-0.386,0.934v37.836C19.9,79.855,20.144,80.101,20.447,80.101z M78.186,57.489  c0,0.303-0.173,0.721-0.387,0.934L59.777,76.445c-0.214,0.214-0.388,0.142-0.388-0.16V59.033c0.022-0.061,0.036-0.123,0.036-0.19  v-0.82c0-0.067-0.014-0.13-0.036-0.19V42.51c0-0.302,0.174-0.721,0.388-0.934l18.022-18.022c0.214-0.214,0.387-0.142,0.387,0.16  V57.489z M23.553,40.223l18.023-18.023c0.214-0.213,0.632-0.386,0.933-0.386h33.776c0.302,0,0.374,0.173,0.16,0.386L58.422,40.223  c-0.213,0.214-0.631,0.387-0.933,0.387H23.713C23.412,40.609,23.339,40.437,23.553,40.223z M22.36,42.523h34.569  c0.301,0,0.547,0.246,0.547,0.547V77.64c0,0.302-0.246,0.546-0.547,0.546h-34.51l-0.012-0.014l-0.58-0.58l-0.015-0.012V43.07  C21.813,42.77,22.058,42.523,22.36,42.523z"/>
    <path fill="#000000"
          d="M31.882,68.697c0.214,0.214,0.561,0.214,0.773,0l0.58-0.581c0.214-0.213,0.214-0.56,0-0.772l-0.58-0.58  c-0.213-0.214-0.561-0.214-0.773,0l-0.58,0.58c-0.214,0.213-0.214,0.56,0,0.772L31.882,68.697z"/>
    <path fill="#000000"
          d="M41.157,45.74h0.82c0.302,0,0.546-0.245,0.546-0.547v-0.82c0-0.303-0.244-0.547-0.546-0.547h-0.82  c-0.302,0-0.547,0.244-0.547,0.547v0.82C40.61,45.495,40.855,45.74,41.157,45.74z"/>
    <path fill="#000000"
          d="M34.589,65.99c0.213,0.214,0.561,0.214,0.773,0l0.58-0.58c0.214-0.214,0.214-0.561,0-0.773l-0.581-0.58  c-0.213-0.214-0.56-0.214-0.772,0l-0.58,0.58c-0.214,0.213-0.214,0.56,0,0.772L34.589,65.99z"/>
    <path fill="#000000"
          d="M29.176,71.403c0.213,0.215,0.56,0.215,0.772,0l0.58-0.58c0.214-0.213,0.214-0.56,0-0.772l-0.58-0.58  c-0.213-0.214-0.56-0.214-0.773,0l-0.58,0.58c-0.214,0.213-0.214,0.56,0,0.772L29.176,71.403z"/>
    <path fill="#000000"
          d="M26.469,74.111c0.213,0.214,0.56,0.214,0.772,0l0.58-0.581c0.214-0.213,0.214-0.56,0-0.772l-0.58-0.58  c-0.213-0.214-0.561-0.214-0.773,0l-0.58,0.58c-0.214,0.213-0.214,0.56,0,0.772L26.469,74.111z"/>
    <path fill="#000000"
          d="M23.761,76.817c0.214,0.215,0.561,0.215,0.773,0l0.58-0.58c0.214-0.213,0.214-0.56,0-0.772l-0.58-0.58  c-0.214-0.214-0.56-0.214-0.773,0l-0.579,0.58c-0.215,0.213-0.215,0.56,0,0.772L23.761,76.817z"/>
    <path fill="#000000"
          d="M41.157,57.225h0.82c0.302,0,0.546-0.244,0.546-0.547v-0.819c0-0.303-0.244-0.547-0.546-0.547h-0.82  c-0.302,0-0.547,0.244-0.547,0.547v0.819C40.61,56.98,40.855,57.225,41.157,57.225z"/>
    <path fill="#000000"
          d="M40.003,60.576c0.213,0.214,0.56,0.214,0.773,0l0.58-0.58c0.214-0.213,0.214-0.56,0-0.772l-0.58-0.581  c-0.214-0.214-0.561-0.214-0.773,0l-0.58,0.579c-0.213,0.214-0.213,0.562,0,0.774L40.003,60.576z"/>
    <path fill="#000000"
          d="M37.296,63.283c0.213,0.214,0.56,0.214,0.773,0l0.58-0.58c0.214-0.213,0.214-0.561,0-0.773l-0.58-0.58  c-0.214-0.214-0.561-0.214-0.773,0l-0.58,0.58c-0.213,0.213-0.213,0.56,0,0.773L37.296,63.283z"/>
    <path fill="#000000"
          d="M41.157,49.568h0.82c0.302,0,0.546-0.244,0.546-0.547v-0.819c0-0.303-0.244-0.548-0.546-0.548h-0.82  c-0.302,0-0.547,0.245-0.547,0.548v0.819C40.61,49.324,40.855,49.568,41.157,49.568z"/>
    <path fill="#000000"
          d="M41.157,53.396h0.82c0.302,0,0.546-0.244,0.546-0.547V52.03c0-0.303-0.244-0.547-0.546-0.547h-0.82  c-0.302,0-0.547,0.244-0.547,0.547v0.819C40.61,53.152,40.855,53.396,41.157,53.396z"/>
    <path fill="#000000"
          d="M70.364,57.476h-0.82c-0.302,0-0.547,0.245-0.547,0.547v0.82c0,0.302,0.245,0.547,0.547,0.547h0.82  c0.302,0,0.547-0.245,0.547-0.547v-0.82C70.911,57.721,70.666,57.476,70.364,57.476z"/>
    <path fill="#000000"
          d="M62.707,57.476h-0.819c-0.303,0-0.547,0.245-0.547,0.547v0.82c0,0.302,0.244,0.547,0.547,0.547h0.819  c0.303,0,0.547-0.245,0.547-0.547v-0.82C63.253,57.721,63.009,57.476,62.707,57.476z"/>
    <path fill="#000000"
          d="M42.199,58.022v0.82c0,0.302,0.244,0.547,0.547,0.547h0.82c0.302,0,0.547-0.245,0.547-0.547v-0.82  c0-0.302-0.245-0.547-0.547-0.547h-0.82C42.443,57.476,42.199,57.721,42.199,58.022z"/>
    <path fill="#000000"
          d="M66.536,57.476h-0.82c-0.303,0-0.547,0.245-0.547,0.547v0.82c0,0.302,0.244,0.547,0.547,0.547h0.82  c0.301,0,0.547-0.245,0.547-0.547v-0.82C67.083,57.721,66.836,57.476,66.536,57.476z"/>
    <path fill="#000000"
          d="M46.574,59.39h0.82c0.302,0,0.547-0.245,0.547-0.547v-0.82c0-0.302-0.245-0.547-0.547-0.547h-0.82  c-0.303,0-0.547,0.245-0.547,0.547v0.82C46.027,59.145,46.271,59.39,46.574,59.39z"/>
    <path fill="#000000"
          d="M50.402,59.39h0.82c0.302,0,0.547-0.245,0.547-0.547v-0.82c0-0.302-0.245-0.547-0.547-0.547h-0.82  c-0.303,0-0.547,0.245-0.547,0.547v0.82C49.855,59.145,50.099,59.39,50.402,59.39z"/>
    <path fill="#000000"
          d="M54.23,59.39h0.82c0.303,0,0.547-0.245,0.547-0.547v-0.82c0-0.302-0.244-0.547-0.547-0.547h-0.82  c-0.302,0-0.547,0.245-0.547,0.547v0.82C53.683,59.145,53.928,59.39,54.23,59.39z"/>
    <path fill="#000000"
          d="M74.192,57.476h-0.819c-0.303,0-0.547,0.245-0.547,0.547v0.82c0,0.302,0.244,0.547,0.547,0.547h0.819  c0.302,0,0.547-0.245,0.547-0.547v-0.82C74.739,57.721,74.494,57.476,74.192,57.476z"/>
    <path fill="#000000"
          d="M26.773,39.516h29.845c0.267,0,0.636-0.153,0.825-0.341l15.926-15.926c0.188-0.189,0.125-0.343-0.142-0.343  H43.381c-0.267,0-0.636,0.153-0.824,0.343L26.632,39.175C26.443,39.362,26.506,39.516,26.773,39.516z"/>
</svg>